# Blender v2.78 (sub 4) OBJ File: 'airplane.blend'
# www.blender.org
mtllib airplane.mtl
o plane_test_Cube
v 0.290152 -0.058286 0.417515
v 0.372381 0.527672 0.654623
v 0.290152 -0.075934 -0.782485
v 0.421224 0.527672 -0.782485
v 0.199864 -0.312172 -0.782485
v 0.199864 0.717959 -0.782485
v 0.497489 0.317959 -0.782485
v 0.497489 0.204648 -0.782485
v 0.421224 0.527672 0.273315
v 0.497489 0.317959 0.417515
v 0.497489 0.217976 0.417515
v 0.199864 -0.312172 0.417515
v 0.166832 0.672202 0.672594
v 0.077254 0.717959 0.273315
v 0.199864 0.030000 1.609030
v 0.199864 0.127985 1.609030
v 0.497489 0.204648 0.273315
v 0.497489 0.317959 0.273315
v -0.001900 0.062020 -0.782485
v 0.373606 0.097961 -0.782485
v 0.373606 0.340148 -0.782485
v -0.001900 1.201431 -0.782485
v -0.001900 1.201431 -0.459820
v 0.039764 1.201431 -0.459820
v 0.039764 1.201431 -0.782485
v 1.311051 0.204648 -0.539337
v 1.311051 0.317959 -0.539337
v 0.939648 0.204648 -0.782485
v 0.939648 0.204648 -0.382485
v 0.939648 0.317959 -0.782485
v 0.939648 0.317959 -0.382485
v 1.311051 0.317959 -1.558165
v 1.311051 0.204648 -1.558165
v 0.939648 0.204648 -2.074518
v 0.939648 0.317959 -2.074518
v -0.001900 0.717959 0.273315
v -0.001900 0.717959 -0.782485
v -0.001900 0.676533 0.663711
v -0.001900 0.127985 1.609030
v -0.001900 -0.312172 0.417515
v -0.001900 0.030000 1.609030
v -0.001900 -0.312172 -0.782485
v -0.001900 -0.082041 -0.782485
v -0.001900 0.389798 -0.782485
v 0.024746 0.097471 -0.782485
v 0.024746 0.340148 -0.782485
v 0.323544 0.135925 -1.022500
v 0.323544 0.291313 -1.022500
v 0.024746 0.135434 -1.022500
v 0.024746 0.291313 -1.022500
v 0.265863 0.165874 -1.059147
v 0.265863 0.261269 -1.059147
v 0.082427 0.165573 -1.059147
v 0.082427 0.261269 -1.059147
v 0.243533 0.177468 -0.668225
v 0.243533 0.249638 -0.668225
v 0.104757 0.177241 -0.668225
v 0.104757 0.249638 -0.668225
v -0.290424 -0.058286 0.417515
v -0.372653 0.527672 0.654623
v -0.290424 -0.075934 -0.782485
v -0.421495 0.527672 -0.782485
v -0.200136 -0.312172 -0.782485
v -0.200136 0.717959 -0.782485
v -0.497761 0.317959 -0.782485
v -0.497761 0.204648 -0.782485
v -0.421495 0.527672 0.273315
v -0.497761 0.317959 0.417515
v -0.497761 0.217976 0.417515
v -0.200136 -0.312172 0.417515
v -0.167104 0.672202 0.672594
v -0.077526 0.717959 0.273315
v -0.200136 0.030000 1.609030
v -0.200136 0.127985 1.609030
v -0.497761 0.204648 0.273315
v -0.497761 0.317959 0.273315
v -0.373877 0.097961 -0.782485
v -0.373877 0.340148 -0.782485
v -0.040036 1.201431 -0.459820
v -0.040036 1.201431 -0.782485
v -1.311323 0.204648 -0.539337
v -1.311323 0.317959 -0.539337
v -0.939920 0.204648 -0.782485
v -0.939920 0.204648 -0.382485
v -0.939920 0.317959 -0.782485
v -0.939920 0.317959 -0.382485
v -1.311323 0.317959 -1.558165
v -1.311323 0.204648 -1.558165
v -0.939920 0.204648 -2.074518
v -0.939920 0.317959 -2.074518
v -0.025017 0.097471 -0.782485
v -0.025017 0.340148 -0.782485
v -0.323815 0.135925 -1.022500
v -0.323815 0.291313 -1.022500
v -0.025017 0.135434 -1.022500
v -0.025017 0.291313 -1.022500
v -0.266134 0.165874 -1.059147
v -0.266134 0.261269 -1.059147
v -0.082699 0.165573 -1.059147
v -0.082699 0.261269 -1.059147
v -0.243804 0.177468 -0.668225
v -0.243804 0.249638 -0.668225
v -0.105029 0.177241 -0.668225
v -0.105029 0.249638 -0.668225
vn 0.5493 0.7308 0.4053
vn -0.5493 0.7308 0.4053
vn -0.0019 0.8647 0.5022
vn 0.0020 0.8647 0.5022
vn 0.0000 0.0000 -1.0000
vn 0.9632 0.2443 0.1119
vn 0.0000 -1.0000 0.0000
vn 0.9300 0.2475 0.2718
vn 0.9398 0.3418 0.0000
vn 0.0000 1.0000 0.0000
vn 0.9379 -0.3335 0.0958
vn 0.7954 -0.5970 0.1045
vn 0.0013 -0.7733 -0.6340
vn 0.0000 0.7733 -0.6340
vn 0.9493 0.3144 0.0000
vn 0.9052 0.4089 0.1159
vn 0.7986 -0.5993 0.0554
vn -0.9632 0.2443 0.1119
vn -0.9300 0.2475 0.2718
vn -0.9398 0.3418 0.0000
vn -0.9379 -0.3335 0.0958
vn -0.7954 -0.5970 0.1045
vn -0.0013 -0.7733 -0.6340
vn -0.9493 0.3144 0.0000
vn -0.9052 0.4089 0.1159
vn -0.7986 -0.5993 0.0554
vn 0.0000 0.9799 -0.1994
vn 0.5581 0.8291 0.0324
vn 0.9789 0.0000 -0.2042
vn -1.0000 0.0000 -0.0000
vn 0.0000 -0.9996 -0.0297
vn -0.9383 -0.3457 0.0025
vn 0.9984 0.0000 -0.0570
vn 0.5363 0.0000 -0.8441
vn 0.9702 0.0000 0.2423
vn -0.5363 0.0000 -0.8441
vn -0.3890 0.0000 0.9212
vn 0.0135 0.9940 0.1082
vn -0.0016 0.9996 -0.0297
vn -0.9984 0.0000 -0.0570
vn -0.7956 -0.6058 0.0047
vn 0.0000 0.8348 0.5505
vn 0.7956 -0.6058 0.0047
vn -0.0015 -0.9877 -0.1564
vn 0.0000 0.0000 1.0000
vn -0.9789 0.0000 -0.2042
vn -0.8118 0.0000 -0.5839
vn 0.0016 0.9996 -0.0297
vn 0.9383 -0.3457 0.0025
vn 1.0000 0.0000 0.0000
vn 0.0000 -0.9612 0.2760
vn 0.3891 0.0000 0.9212
vn 0.8118 0.0000 -0.5839
vn -0.5581 0.8291 0.0324
vn 0.8291 0.0000 0.5590
vn -0.9702 0.0000 0.2423
vn -0.0139 0.9940 0.1082
vn 0.0015 -0.9877 -0.1564
vn -0.8291 0.0000 0.5590
vn -0.5207 0.8534 0.0229
vn 0.5207 0.8534 0.0229
usemtl Material.001
s off
f 2//1 13//1 16//1
f 60//2 74//2 71//2
f 13//3 38//3 39//3 16//3
f 71//4 74//4 39//4 38//4
usemtl Material.002
f 21//5 4//5 7//5
f 6//6 24//6 14//6
f 29//7 8//7 28//7
f 2//8 16//8 10//8
f 9//9 10//9 18//9
f 3//5 20//5 8//5
f 33//7 26//7 28//7
f 65//10 86//10 76//10
f 12//11 1//11 15//11
f 1//12 11//12 15//12
f 45//5 20//5 19//5
f 20//5 7//5 8//5
f 53//13 47//13 49//13
f 50//14 52//14 54//14
f 32//10 30//10 27//10
f 50//14 48//14 52//14
f 6//15 25//15 24//15
f 29//7 17//7 8//7
f 53//13 51//13 47//13
f 29//7 28//7 26//7
f 34//7 33//7 28//7
f 46//5 45//5 19//5
f 46//5 44//5 21//5
f 46//5 19//5 44//5
f 31//10 27//10 30//10
f 32//10 35//10 30//10
f 9//16 2//16 10//16
f 17//17 11//17 1//17
f 6//5 4//5 21//5
f 20//5 21//5 7//5
f 78//5 65//5 62//5
f 64//18 72//18 79//18
f 84//7 83//7 66//7
f 60//19 68//19 74//19
f 67//20 76//20 68//20
f 61//5 66//5 77//5
f 88//7 83//7 81//7
f 70//21 73//21 59//21
f 59//22 73//22 69//22
f 91//5 19//5 77//5
f 77//5 66//5 65//5
f 99//23 95//23 93//23
f 96//14 100//14 98//14
f 87//10 82//10 85//10
f 96//14 98//14 94//14
f 64//24 79//24 80//24
f 84//7 66//7 75//7
f 99//23 93//23 97//23
f 84//7 81//7 83//7
f 89//7 83//7 88//7
f 92//5 19//5 91//5
f 92//5 78//5 44//5
f 92//5 44//5 19//5
f 86//10 85//10 82//10
f 87//10 85//10 90//10
f 67//25 68//25 60//25
f 75//26 59//26 69//26
f 64//5 78//5 62//5
f 77//5 65//5 78//5
f 7//10 31//10 30//10
f 46//27 21//27 48//27 50//27
f 6//28 14//28 9//28 4//28
f 23//10 22//10 80//10 79//10
f 48//29 21//29 20//29 47//29
f 101//5 102//5 104//5 103//5
f 45//30 46//30 50//30 49//30
f 23//10 24//10 25//10 22//10
f 104//31 102//31 98//31 100//31
f 70//32 59//32 61//32 63//32
f 97//33 98//33 102//33 101//33
f 5//7 12//7 40//7 42//7
f 43//5 42//5 63//5 61//5
f 4//9 9//9 18//9 7//9
f 7//5 30//5 28//5 8//5
f 65//10 85//10 86//10
f 87//30 88//30 81//30 82//30
f 62//20 65//20 76//20 67//20
f 52//34 48//34 47//34 51//34
f 16//35 15//35 11//35 10//35
f 93//36 94//36 98//36 97//36
f 69//30 68//30 76//30 75//30
f 3//5 43//5 19//5 20//5
f 86//37 82//37 81//37 84//37
f 25//5 6//5 37//5 22//5
f 14//38 36//38 38//38 13//38
f 57//39 55//39 51//39 53//39
f 100//40 99//40 103//40 104//40
f 65//5 66//5 83//5 85//5
f 56//31 58//31 54//31 52//31
f 75//41 66//41 61//41 59//41
f 58//5 56//5 55//5 57//5
f 44//5 78//5 64//5 37//5
f 36//42 23//42 79//42 72//42
f 17//43 1//43 3//43 8//43
f 91//44 77//44 93//44 95//44
f 37//5 64//5 80//5 22//5
f 39//45 41//45 15//45 16//45
f 77//46 78//46 94//46 93//46
f 39//45 74//45 73//45 41//45
f 5//5 42//5 43//5 3//5
f 87//47 90//47 89//47 88//47
f 97//48 101//48 103//48 99//48
f 3//49 1//49 12//49 5//49
f 56//40 52//40 51//40 55//40
f 32//50 27//50 26//50 33//50
f 96//50 92//50 91//50 95//50
f 41//51 40//51 12//51 15//51
f 35//30 34//30 28//30 30//30
f 31//52 29//52 26//52 27//52
f 32//53 33//53 34//53 35//53
f 96//34 95//34 99//34 100//34
f 67//54 72//54 64//54 62//54
f 53//36 49//36 50//36 54//36
f 11//50 17//50 18//50 10//50
f 19//5 43//5 61//5 77//5
f 31//55 18//55 17//55 29//55
f 69//56 73//56 74//56 68//56
f 38//57 36//57 72//57 71//57
f 47//58 20//58 45//58 49//58
f 57//33 53//33 54//33 58//33
f 86//59 84//59 75//59 76//59
f 94//27 78//27 92//27 96//27
f 71//60 72//60 67//60 60//60
f 41//51 73//51 70//51 40//51
f 6//5 21//5 44//5 37//5
f 24//42 23//42 36//42 14//42
f 9//61 14//61 13//61 2//61
f 90//50 85//50 83//50 89//50
f 7//10 18//10 31//10
f 63//7 42//7 40//7 70//7
