# Created by Metasequoia

mtllib airplane_metaseq.mtl

v -0.290152 -0.058286 0.417515
v -0.372381 0.527672 0.654623
v -0.290152 -0.075934 -0.782485
v -0.421224 0.527672 -0.782485
v -0.199864 -0.312172 -0.782485
v -0.199864 0.717959 -0.782485
v -0.497489 0.317959 -0.782485
v -0.497489 0.204648 -0.782485
v -0.421224 0.527672 0.273315
v -0.497489 0.317959 0.417515
v -0.497489 0.217976 0.417515
v -0.199864 -0.312172 0.417515
v -0.166832 0.672202 0.672594
v -0.077254 0.717959 0.273315
v -0.199864 0.030000 1.609030
v -0.199864 0.127985 1.609030
v -0.497489 0.204648 0.273315
v -0.497489 0.317959 0.273315
v 0.001900 0.062020 -0.782485
v -0.373606 0.097961 -0.782485
v -0.373606 0.340148 -0.782485
v 0.001900 1.201431 -0.782486
v 0.001900 1.201431 -0.459820
v -0.039764 1.201431 -0.459820
v -0.039764 1.201431 -0.782486
v -1.311051 0.204648 -0.539337
v -1.311051 0.317959 -0.539337
v -0.939648 0.204648 -0.782485
v -0.939648 0.204648 -0.382485
v -0.939648 0.317959 -0.782485
v -0.939648 0.317959 -0.382485
v -1.311051 0.317959 -1.558165
v -1.311051 0.204648 -1.558165
v -0.939648 0.204648 -2.074518
v -0.939648 0.317959 -2.074518
v 0.001900 0.717959 0.273315
v 0.001900 0.717959 -0.782485
v 0.001900 0.676533 0.663711
v 0.001900 0.127985 1.609030
v 0.001900 -0.312172 0.417515
v 0.001900 0.030000 1.609030
v 0.001900 -0.312172 -0.782485
v 0.001900 -0.082041 -0.782485
v 0.001900 0.389798 -0.782485
v -0.024746 0.097471 -0.782485
v -0.024746 0.340148 -0.782485
v -0.323544 0.135925 -1.022500
v -0.323544 0.291313 -1.022500
v -0.024746 0.135434 -1.022500
v -0.024746 0.291313 -1.022500
v -0.265863 0.165874 -1.059147
v -0.265863 0.261269 -1.059147
v -0.082427 0.165573 -1.059147
v -0.082427 0.261269 -1.059147
v -0.243533 0.177468 -0.668225
v -0.243533 0.249638 -0.668225
v -0.104757 0.177241 -0.668225
v -0.104757 0.249638 -0.668225
v 0.290424 -0.058286 0.417515
v 0.372653 0.527672 0.654623
v 0.290424 -0.075934 -0.782485
v 0.421495 0.527672 -0.782485
v 0.200136 -0.312172 -0.782485
v 0.200136 0.717959 -0.782485
v 0.497761 0.317959 -0.782485
v 0.497761 0.204648 -0.782485
v 0.421495 0.527672 0.273315
v 0.497761 0.317959 0.417515
v 0.497761 0.217976 0.417515
v 0.200136 -0.312172 0.417515
v 0.167104 0.672202 0.672594
v 0.077526 0.717959 0.273315
v 0.200136 0.030000 1.609030
v 0.200136 0.127985 1.609030
v 0.497761 0.204648 0.273315
v 0.497761 0.317959 0.273315
v 0.373877 0.097961 -0.782485
v 0.373877 0.340148 -0.782485
v 0.040036 1.201431 -0.459820
v 0.040036 1.201431 -0.782486
v 1.311323 0.204648 -0.539337
v 1.311323 0.317959 -0.539337
v 0.939920 0.204648 -0.782485
v 0.939920 0.204648 -0.382485
v 0.939920 0.317959 -0.782485
v 0.939920 0.317959 -0.382485
v 1.311323 0.317959 -1.558165
v 1.311323 0.204648 -1.558165
v 0.939920 0.204648 -2.074518
v 0.939920 0.317959 -2.074518
v 0.025017 0.097471 -0.782485
v 0.025017 0.340148 -0.782485
v 0.323815 0.135925 -1.022500
v 0.323815 0.291313 -1.022500
v 0.025017 0.135434 -1.022500
v 0.025017 0.291313 -1.022500
v 0.266134 0.165874 -1.059147
v 0.266134 0.261269 -1.059147
v 0.082699 0.165573 -1.059147
v 0.082699 0.261269 -1.059147
v 0.243804 0.177468 -0.668225
v 0.243804 0.249638 -0.668225
v 0.105029 0.177241 -0.668225
v 0.105029 0.249638 -0.668225
# 104 vertices

vt 0.00000 0.00000
# 1 texture vertices

vn -0.86321 -0.50204 0.05315
vn -0.77466 0.59310 0.21937
vn 0.00000 0.00000 -1.00000
vn 0.00000 -1.00000 0.00000
vn -0.87315 0.48496 0.04925
vn -0.29220 -0.95635 0.00166
vn -0.81496 0.57833 0.03712
vn -0.97042 0.20414 0.12885
vn -0.94264 -0.31640 0.10638
vn -0.93908 -0.34017 0.04918
vn -0.29022 0.91533 0.27919
vn -0.47647 0.85826 0.19072
vn -0.93443 -0.32162 0.15299
vn -0.72461 0.54569 0.42091
vn -0.83123 -0.53524 0.15027
vn -0.97281 0.17929 0.14664
vn 0.00000 1.00000 0.00000
vn 0.00000 0.95781 0.28739
vn -0.95838 0.27995 0.05605
vn -0.94930 0.31436 0.00000
vn 0.00005 0.94096 0.33852
vn -0.00000 -0.00000 -1.00000
vn 0.00004 0.95020 0.31163
vn -0.00002 0.86476 0.50218
vn 0.00000 -0.99024 0.13937
vn 0.00000 0.00000 1.00000
vn -0.15689 -0.73589 -0.65867
vn 0.00000 0.90316 -0.42930
vn 0.21676 -0.71554 -0.66409
vn 0.00000 0.86474 -0.50222
vn -0.30670 -0.44125 -0.84334
vn -0.20068 0.57881 -0.79039
vn 0.19977 -0.57892 -0.79054
vn 0.30605 0.44135 -0.84353
vn 0.00164 0.99956 -0.02974
vn -0.00000 -0.99956 -0.02974
vn 0.86321 -0.50204 0.05315
vn 0.77466 0.59311 0.21937
vn 0.93821 -0.34606 0.00246
vn 0.87315 0.48496 0.04925
vn 0.29220 -0.95635 0.00166
vn 0.81496 0.57833 0.03712
vn 0.97042 0.20414 0.12885
vn 0.94264 -0.31640 0.10638
vn 0.93908 -0.34017 0.04918
vn 0.29026 0.91532 0.27918
vn 0.57971 0.81105 0.07830
vn 0.93443 -0.32162 0.15299
vn 0.72460 0.54570 0.42091
vn 0.58592 -0.81007 0.02202
vn 0.95838 0.27995 0.05605
vn 0.94930 0.31436 0.00000
vn -0.00000 -1.00000 0.00000
vn 0.00000 1.00000 0.00000
vn 0.15689 -0.73589 -0.65867
vn 0.21580 0.70553 -0.67502
vn 0.00144 -0.91233 -0.40946
vn -0.15471 0.72894 -0.66687
vn 0.30670 -0.44125 -0.84334
vn 0.20068 0.57881 -0.79039
vn -0.19977 -0.57892 -0.79054
vn -0.30604 0.44135 -0.84353
vn -0.00000 -0.00000 -1.00000
vn 0.97281 0.17929 0.14664
vn -0.00000 -0.00000 -1.00000
vn 0.00000 0.97992 -0.19938
vn -0.79244 0.60977 0.01481
vn -0.82238 0.00000 -0.56894
vn -0.97893 0.00000 -0.20418
vn 1.00000 0.00000 0.00000
vn 0.87643 0.00000 -0.48153
vn 0.00000 0.95781 0.28739
vn -0.00000 -0.99956 -0.02974
vn 0.87674 -0.48095 0.00354
vn -0.99837 0.00000 -0.05703
vn -0.93979 0.34177 0.00000
vn 0.95179 0.00000 -0.30675
vn 0.79244 0.60977 0.01481
vn 0.93978 0.34177 0.00000
vn 0.95633 0.00000 0.29228
vn 0.63545 0.00000 0.77214
vn 0.38905 0.00000 0.92122
vn -0.00000 -0.00000 -1.00000
vn 0.99837 0.00000 -0.05703
vn 0.00000 0.83482 0.55053
vn -0.87674 -0.48095 0.00354
vn 0.00151 -0.98770 -0.15637
vn -0.00000 -0.00000 -1.00000
vn 0.97893 0.00000 -0.20418
vn 0.81181 0.00000 -0.58392
vn -0.00164 0.99956 -0.02974
vn -0.93821 -0.34606 0.00246
vn 0.99837 0.00000 -0.05703
vn -0.95179 0.00000 -0.30675
vn -1.00000 0.00000 0.00000
vn -0.87643 0.00000 -0.48153
vn 0.00000 -0.96115 0.27602
vn -0.63545 0.00000 0.77214
vn -0.38905 0.00000 0.92122
vn -0.81181 0.00000 -0.58392
vn -0.00151 -0.98770 -0.15637
vn -0.99837 0.00000 -0.05703
vn 0.00000 0.97992 -0.19938
vn 0.00000 -0.99024 0.13937
vn 0.00000 -0.96115 0.27602
# 105 normal vertices

usemtl Material.002
f 21/1/3 7/1/3 4/1/3
f 6/1/5 14/1/12 24/1/19
f 29/1/4 28/1/4 8/1/6
f 2/1/2 10/1/8 16/1/14
f 9/1/7 18/1/16 10/1/8
f 3/1/3 8/1/3 20/1/3
f 33/1/4 28/1/4 26/1/4
f 65/1/17 76/1/17 86/1/17
f 12/1/10 15/1/13 1/1/1
usemtl Material.001
f 2/1/2 16/1/14 13/1/11
usemtl Material.002
f 1/1/1 15/1/13 11/1/9
f 45/1/3 19/1/3 20/1/3
f 20/1/3 8/1/3 7/1/3
f 53/1/33 49/1/29 47/1/27
f 50/1/30 54/1/34 52/1/32
f 32/1/17 27/1/17 30/1/17
f 50/1/30 52/1/32 48/1/28
f 6/1/5 24/1/19 25/1/20
f 29/1/4 8/1/6 17/1/15
f 53/1/33 47/1/27 51/1/31
f 29/1/4 26/1/4 28/1/4
f 34/1/4 28/1/4 33/1/4
f 46/1/3 19/1/3 45/1/3
f 46/1/3 21/1/3 44/1/3
f 46/1/3 44/1/3 19/1/3
f 31/1/17 30/1/17 27/1/17
f 32/1/17 30/1/17 35/1/17
f 9/1/7 10/1/8 2/1/2
f 17/1/15 1/1/1 11/1/9
f 6/1/63 21/1/3 4/1/3
f 20/1/3 7/1/3 21/1/3
f 78/1/3 62/1/3 65/1/3
f 64/1/40 79/1/51 72/1/47
f 84/1/4 66/1/41 83/1/4
f 60/1/38 74/1/49 68/1/43
f 67/1/42 68/1/43 76/1/64
f 61/1/3 77/1/3 66/1/3
f 88/1/4 81/1/4 83/1/4
f 70/1/45 59/1/37 73/1/48
usemtl Material.001
f 60/1/38 71/1/46 74/1/49
usemtl Material.002
f 59/1/37 69/1/44 73/1/48
f 91/1/3 77/1/3 19/1/3
f 77/1/3 65/1/3 66/1/3
f 99/1/61 93/1/55 95/1/57
f 96/1/58 98/1/60 100/1/62
f 87/1/17 85/1/17 82/1/17
f 96/1/58 94/1/56 98/1/60
f 64/1/40 80/1/52 79/1/51
f 84/1/4 75/1/50 66/1/41
f 99/1/61 97/1/59 93/1/55
f 84/1/4 83/1/4 81/1/4
f 89/1/53 88/1/4 83/1/4
f 92/1/3 91/1/3 19/1/3
f 92/1/3 44/1/3 78/1/3
f 92/1/3 19/1/3 44/1/3
f 86/1/17 82/1/17 85/1/17
f 87/1/17 90/1/54 85/1/17
f 67/1/42 60/1/38 68/1/43
f 75/1/50 69/1/44 59/1/37
f 64/1/65 62/1/3 78/1/3
f 77/1/3 78/1/3 65/1/3
f 7/1/17 30/1/17 31/1/17
f 46/1/66 50/1/30 48/1/28 21/1/66
f 6/1/5 4/1/67 9/1/7 14/1/12
usemtl Material.001
f 13/1/11 16/1/14 39/1/24 38/1/23
usemtl Material.002
f 23/1/18 79/1/18 80/1/17 22/1/17
f 48/1/68 47/1/69 20/1/69 21/1/69
f 101/1/3 103/1/3 104/1/3 102/1/3
f 45/1/70 49/1/70 50/1/71 46/1/70
f 23/1/18 22/1/17 25/1/17 24/1/72
f 104/1/73 100/1/73 98/1/73 102/1/73
f 70/1/45 63/1/39 61/1/74 59/1/37
f 97/1/75 101/1/75 102/1/75 98/1/75
f 5/1/4 42/1/4 40/1/25 12/1/25
f 43/1/3 61/1/3 63/1/3 42/1/3
f 4/1/67 7/1/76 18/1/16 9/1/7
f 7/1/3 8/1/3 28/1/3 30/1/3
f 65/1/17 86/1/17 85/1/17
f 87/1/77 82/1/70 81/1/70 88/1/77
f 62/1/78 67/1/42 76/1/64 65/1/79
f 52/1/32 51/1/31 47/1/27 48/1/68
f 16/1/14 10/1/8 11/1/9 15/1/13
f 93/1/55 97/1/59 98/1/60 94/1/56
f 69/1/44 75/1/80 76/1/64 68/1/43
f 3/1/3 20/1/3 19/1/3 43/1/3
f 86/1/81 84/1/81 81/1/82 82/1/82
f 25/1/83 22/1/83 37/1/22 6/1/63
f 14/1/12 13/1/11 38/1/23 36/1/21
f 57/1/35 53/1/35 51/1/35 55/1/35
f 100/1/84 104/1/84 103/1/84 99/1/84
f 65/1/3 85/1/3 83/1/3 66/1/3
f 56/1/36 52/1/36 54/1/36 58/1/36
f 75/1/50 59/1/37 61/1/74 66/1/41
f 58/1/3 57/1/3 55/1/3 56/1/3
f 44/1/3 37/1/22 64/1/65 78/1/3
f 36/1/21 72/1/85 79/1/18 23/1/18
f 17/1/15 8/1/6 3/1/86 1/1/1
f 91/1/87 95/1/57 93/1/55 77/1/87
f 37/1/22 22/1/83 80/1/88 64/1/65
usemtl Material.001
f 71/1/46 38/1/23 39/1/24 74/1/49
usemtl Material.002
f 39/1/26 16/1/26 15/1/26 41/1/26
f 77/1/89 93/1/89 94/1/89 78/1/89
f 39/1/26 41/1/26 73/1/26 74/1/26
f 5/1/3 3/1/3 43/1/3 42/1/3
f 87/1/77 88/1/77 89/1/90 90/1/90
f 97/1/91 99/1/91 103/1/91 101/1/91
f 3/1/86 5/1/92 12/1/10 1/1/1
f 56/1/93 55/1/93 51/1/93 52/1/93
f 32/1/94 33/1/94 26/1/95 27/1/95
f 96/1/95 95/1/96 91/1/95 92/1/95
f 41/1/97 15/1/97 12/1/25 40/1/25
f 35/1/70 30/1/70 28/1/70 34/1/70
f 31/1/98 27/1/99 26/1/99 29/1/98
f 32/1/94 35/1/100 34/1/100 33/1/94
f 96/1/58 100/1/62 99/1/61 95/1/96
f 67/1/42 62/1/78 64/1/40 72/1/47
f 53/1/33 54/1/34 50/1/71 49/1/29
f 11/1/9 10/1/8 18/1/16 17/1/15
f 19/1/3 77/1/3 61/1/3 43/1/3
f 31/1/98 29/1/98 17/1/15 18/1/16
f 69/1/44 68/1/43 74/1/49 73/1/48
f 38/1/23 71/1/46 72/1/47 36/1/21
f 47/1/27 49/1/29 45/1/101 20/1/101
f 57/1/102 58/1/102 54/1/102 53/1/102
f 86/1/81 76/1/64 75/1/80 84/1/81
f 94/1/56 96/1/58 92/1/103 78/1/103
f 71/1/46 60/1/38 67/1/42 72/1/47
f 41/1/97 40/1/25 70/1/104 73/1/105
f 6/1/63 37/1/22 44/1/3 21/1/3
f 24/1/72 14/1/12 36/1/21 23/1/18
f 9/1/7 2/1/2 13/1/11 14/1/12
f 90/1/95 89/1/95 83/1/95 85/1/95
f 7/1/17 31/1/17 18/1/17
f 63/1/4 70/1/104 40/1/25 42/1/4
# 134 elements

