# Blender v2.78 (sub 4) OBJ File: 'cube_tri_tex.blend'
# www.blender.org
mtllib cube_tri_tex.mtl
o Cube
v -1.000000 -1.000000 1.000000
v -1.000000 1.000000 1.000000
v -1.000000 -1.000000 -1.000000
v -1.000000 1.000000 -1.000000
v 1.000000 -1.000000 1.000000
v 1.000000 1.000000 1.000000
v 1.000000 -1.000000 -1.000000
v 1.000000 1.000000 -1.000000
vt 0.000000 1.000000
vt 0.250000 0.750000
vt 0.250000 1.000000
vt 0.750000 1.000000
vt 1.000000 0.750000
vt 1.000000 1.000000
vt 0.500000 0.750000
vt 0.750000 0.500000
vt 0.750000 0.750000
vt 0.500000 0.500000
vt 0.750000 0.250000
vt 0.750000 0.500000
vt 0.500000 1.000000
vt 0.750000 0.750000
vt 0.500000 0.750000
vt 0.000000 0.750000
vt 0.500000 0.500000
vt 0.500000 0.250000
vn 1.0000 0.0000 0.0000
vn 0.0000 0.0000 1.0000
vn 0.0000 -1.0000 0.0000
vn 0.0000 1.0000 0.0000
vn -1.0000 0.0000 0.0000
vn 0.0000 0.0000 -1.0000
usemtl Material
s off
f 6/1/1 7/2/1 8/3/1
f 2/4/2 5/5/2 6/6/2
f 5/7/3 3/8/3 7/9/3
f 2/10/4 8/11/4 4/12/4
f 4/13/5 1/14/5 2/4/5
f 8/3/6 3/15/6 4/13/6
f 6/1/1 5/16/1 7/2/1
f 2/4/2 1/14/2 5/5/2
f 5/7/3 1/17/3 3/8/3
f 2/10/4 6/18/4 8/11/4
f 4/13/5 3/15/5 1/14/5
f 8/3/6 7/2/6 3/15/6
