# Blender v2.78 (sub 4) OBJ File: 'plane2_tri_simple.blend'
# www.blender.org
mtllib plane2_tri_simple.mtl
o Plane
v -1.000000 -1.000000 1.000000
v 1.000000 -1.000000 1.000000
v -1.000000 1.000000 1.000000
v 1.000000 1.000000 1.000000
v 1.000000 -1.000000 -1.000000
v 1.000000 1.000000 -1.000000
v -1.000000 -1.000000 -1.000000
v -1.000000 1.000000 -1.000000
vn 0.0000 0.0000 1.0000
vn 0.0000 0.0000 -1.0000
vn 1.0000 0.0000 0.0000
usemtl Material
s off
f 4//1 3//1 1//1
f 5//2 7//2 8//2
f 4//1 1//1 2//1
f 5//3 6//3 4//3
f 5//2 8//2 6//2
f 5//3 4//3 2//3
