# Blender v2.78 (sub 4) OBJ File: 'robo_01.blend'
# www.blender.org
mtllib robo_01.mtl
o CubeRobo_Cube
v -0.414082 -0.414082 0.414082
v -0.414082 0.414082 0.414082
v -0.414082 -0.414082 -0.414082
v -0.414082 0.414082 -0.414082
v 0.414082 -0.414082 0.414082
v 0.414082 0.414082 0.414082
v 0.414082 -0.414082 -0.414082
v 0.414082 0.414082 -0.414082
v -0.349682 -0.414082 -0.142641
v -0.349682 -0.414082 0.142641
v -0.414082 0.136081 0.414082
v -0.414082 0.343122 0.414082
v -0.414082 0.414082 0.207041
v -0.414082 0.414082 -0.207041
v -0.414082 0.343122 -0.414082
v -0.414082 0.136081 -0.414082
v 0.414082 0.357079 -0.414082
v 0.414082 0.150038 -0.414082
v 0.361070 -0.414082 0.154029
v 0.361070 -0.414082 -0.154029
v 0.414082 0.414082 -0.207041
v 0.414082 0.414082 0.207041
v 0.414082 0.357079 0.414082
v 0.414082 0.150038 0.414082
v 0.716860 0.165088 1.214018
v 0.207041 0.414082 -0.207041
v 0.207041 0.414082 0.207041
v 0.207041 0.495962 -0.207041
v -0.207041 0.414082 -0.207041
v -0.207041 0.414082 0.207041
v -0.064400 -0.414082 -0.142641
v -0.064400 -0.414082 0.142641
v 0.207041 -0.414082 -0.154029
v 0.414082 0.150038 -0.108981
v 0.414082 0.150038 0.098060
v 0.414082 0.357079 -0.108981
v 0.414082 0.357079 0.098060
v -0.414082 0.136081 0.112914
v -0.414082 0.136081 -0.094127
v -0.414082 0.343122 0.112914
v -0.414082 0.343122 -0.094127
v 0.913152 0.150038 -0.108981
v -0.587550 0.857680 0.112914
v 0.913152 0.357079 -0.108981
v -0.814849 0.857680 0.112914
v -0.528679 0.904538 -0.147751
v 0.701473 0.357079 -0.108981
v 0.701473 0.150038 -0.108981
v -0.528679 0.904538 0.166537
v -0.814849 0.857680 -0.094127
v 0.701473 0.357079 0.098060
v -0.587550 0.857680 -0.094127
v 0.701473 0.150038 0.098060
v 0.913152 0.150038 0.367529
v 0.913152 0.357079 0.367529
v 0.701473 0.357079 0.367529
v 0.701473 0.150038 0.367529
v 0.975466 0.089090 0.498811
v 0.975466 0.418027 0.498811
v 0.639159 0.418027 0.498811
v 0.639159 0.089090 0.498811
v 0.975466 0.089090 0.792672
v 0.975466 0.418027 0.792672
v 0.639159 0.418027 0.792672
v 0.639159 0.089090 0.792672
v 0.897765 0.165088 0.883991
v 0.897765 0.342029 0.883991
v 0.716860 0.342029 0.883991
v 0.716860 0.165088 0.883991
v -0.814849 0.136081 -0.094127
v 0.207041 0.495962 0.207041
v -0.207041 0.495962 -0.207041
v -0.587550 0.343122 0.112914
v -0.207041 0.495962 0.207041
v -0.814849 0.136081 0.112914
v -0.587550 0.136081 -0.094127
v -0.305659 0.522735 0.305659
v -0.305659 0.522735 -0.305659
v 0.305659 0.522735 0.305659
v 0.305659 0.522735 -0.305659
v 0.897765 0.165088 1.214018
v -0.587550 0.136081 0.112914
v -0.305659 0.943861 0.305659
v -0.305659 0.943861 -0.305659
v 0.897765 0.342029 1.214018
v 0.305659 0.943861 0.305659
v 0.305659 0.943861 -0.305659
v -0.587550 0.343122 -0.094127
v 0.716860 0.342029 1.214018
v -0.873720 0.904538 0.166537
v -0.873720 0.904538 -0.147751
v -0.528679 1.219010 0.166537
v -0.528679 1.219010 -0.147751
v -0.873720 1.219010 -0.147751
v -0.873720 1.219010 0.166537
v -0.414082 -0.414082 -0.207041
v -0.414082 -0.414082 0.207041
v 0.053012 -0.414082 -0.154029
v 0.053012 -0.414082 0.154029
v -0.349682 -0.837497 -0.142641
v -0.349682 -0.837497 0.142641
v -0.064400 -0.837497 -0.142641
v -0.064400 -0.837497 0.142641
v -0.349682 -1.033397 -0.142641
v -0.064400 -1.033397 -0.142641
v -0.349682 -0.837497 0.610527
v -0.064400 -0.837497 0.610527
v -0.349682 -1.033397 0.610527
v -0.064400 -1.033397 0.610527
v 0.414082 -0.414082 0.207041
v 0.414082 -0.414082 -0.207041
v 0.000000 -0.414082 -0.207041
v 0.000000 -0.414082 0.207041
v 0.207041 -0.414082 -0.207041
v 0.361070 -0.823042 0.154029
v 0.361070 -0.823042 -0.154029
v 0.053012 -0.823042 -0.154029
v 0.053012 -0.823042 0.154029
v 0.361070 -1.022084 -0.154029
v 0.053012 -1.022084 -0.154029
v 0.053012 -0.823042 0.529977
v 0.361070 -0.823042 0.529977
v 0.053012 -1.022084 0.529977
v 0.361070 -1.022084 0.529977
v -0.236113 1.036534 0.236113
v -0.236113 1.036534 -0.236113
v 0.236113 1.036534 0.236113
v 0.236113 1.036534 -0.236113
v 0.414082 -0.181101 0.414082
v 0.414082 -0.181102 -0.414082
v -0.414082 -0.181101 0.414082
v -0.414082 -0.181102 -0.414082
v 0.414082 -0.049935 0.414082
v -0.414082 -0.049935 0.414082
v -0.414082 -0.049935 -0.414082
v 0.414082 -0.049935 -0.414082
v 0.414082 -0.181101 0.246712
v -0.414082 -0.181101 0.246712
v 0.414082 -0.049935 0.246712
v -0.414082 -0.049935 0.246712
vt 0.223595 0.467717
vt 0.244459 0.325711
vt 0.244459 0.488566
vt 0.374855 0.244283
vt 0.325945 0.081428
vt 0.374855 0.081428
vt 0.472676 0.244283
vt 0.325945 0.325711
vt 0.782159 0.690207
vt 0.820973 0.891849
vt 0.782159 0.853063
vt 0.956183 0.853063
vt 0.917369 0.651421
vt 0.956183 0.690207
vt 0.521587 0.000000
vt 0.472676 0.081428
vt 0.878555 0.690207
vt 0.917369 0.891849
vt 0.878555 0.853063
vt 0.967774 0.325711
vt 0.928960 0.527352
vt 0.928960 0.364497
vt 0.521587 0.081428
vt 0.521587 0.244283
vt 0.713534 0.532974
vt 0.778709 0.651421
vt 0.713534 0.651421
vt 0.325945 0.325711
vt 0.325945 0.651421
vt 0.000000 0.325711
vt 0.081486 0.407138
vt 0.081486 0.488566
vt 0.378363 0.528641
vt 0.713965 0.536039
vt 0.378363 0.638383
vt 0.102350 0.346560
vt 0.223595 0.346560
vt 0.234249 0.000000
vt 0.182626 0.325711
vt 0.182626 0.000000
vt 0.713534 0.451546
vt 0.778709 0.325711
vt 0.778709 0.451546
vt 0.837265 0.325711
vt 0.837265 0.651421
vt 0.691196 0.407138
vt 0.691196 0.569994
vt 0.219112 0.626093
vt 0.081486 0.651421
vt 0.106833 0.626093
vt 0.455880 1.000000
vt 0.488106 0.837145
vt 0.488106 1.000000
vt 0.298312 0.891849
vt 0.165745 0.651421
vt 0.298312 0.651421
vt 0.513881 1.000000
vt 0.488106 0.837145
vt 0.513881 0.837145
vt 0.967774 0.325711
vt 1.000000 0.488566
vt 0.967774 0.488566
vt 0.723805 0.000000
vt 0.889549 0.240427
vt 0.723805 0.240427
vt 0.956183 0.651421
vt 0.992656 0.864497
vt 0.956183 0.891849
vt 1.000000 0.488566
vt 0.967774 0.651421
vt 0.967774 0.488566
vt 0.165745 0.891849
vt 0.000000 0.651421
vt 0.165745 0.651421
vt 0.521587 0.000000
vt 0.687331 0.240427
vt 0.521587 0.240427
vt 0.106833 0.513894
vt 0.219112 0.513894
vt 0.244459 0.651421
vt 0.102350 0.467717
vt 0.102350 0.407138
vt 0.081486 0.325711
vt 0.455880 0.837145
vt 0.567436 0.651421
vt 0.567436 0.837145
vt 0.782159 0.891849
vt 0.736557 0.678773
vt 0.782159 0.651421
vt 0.962890 0.000000
vt 0.999363 0.213075
vt 0.962890 0.240427
vt 0.723805 0.027352
vt 0.723805 0.213075
vt 0.452073 0.348300
vt 0.777784 0.219581
vt 0.777784 0.348300
vt 0.889550 0.000000
vt 0.962890 0.081428
vt 0.889549 0.325711
vt 0.567436 0.651421
vt 0.619060 0.977132
vt 0.567437 0.977132
vt 0.837265 0.651421
vt 0.878555 0.911307
vt 0.837265 0.911307
vt 0.670684 0.651421
vt 0.736557 0.846923
vt 0.670684 0.846923
vt 0.390007 0.977132
vt 0.455880 0.651421
vt 0.455880 0.977132
vt 0.429902 0.755257
vt 0.648003 0.796006
vt 0.351997 0.796006
vt 0.701741 0.345253
vt 0.631643 0.679033
vt 0.377376 0.483104
vt 0.325945 0.244283
vt 0.521587 0.325711
vt 0.820972 0.651421
vt 0.917369 0.891849
vt 0.325945 0.000000
vt 0.967774 0.566138
vt 0.778709 0.532974
vt 0.000000 0.651421
vt 0.378363 0.430043
vt 0.713965 0.430043
vt 0.713965 0.645781
vt 0.378363 0.675995
vt 0.713965 0.675995
vt 0.027928 0.325711
vt 0.000000 0.325711
vt 0.022435 0.000000
vt 0.103921 0.000000
vt 0.000000 0.000000
vt 0.234249 0.325711
vt 0.109414 0.325711
vt 0.325945 0.325711
vt 0.325945 0.000000
vt 0.713534 0.325711
vt 0.691196 0.325711
vt 0.691196 0.651421
vt 0.455880 0.837145
vt 0.165745 0.891849
vt 0.488106 1.000000
vt 1.000000 0.325711
vt 0.889550 0.000000
vt 0.992656 0.678773
vt 1.000000 0.651421
vt 0.000000 0.891849
vt 0.687331 0.000000
vt 0.455880 0.651421
vt 0.736557 0.864497
vt 0.999363 0.027352
vt 0.452073 0.219581
vt 0.962890 0.325711
vt 0.962890 0.244283
vt 0.962890 0.000000
vt 0.619060 0.651421
vt 0.878555 0.651421
vt 0.736557 0.651421
vt 0.390007 0.651421
vt 0.203994 0.796006
vt 0.203994 0.755257
vt 0.203994 0.607254
vt 0.429902 0.607254
vt 0.577905 0.755257
vt 0.796006 0.755257
vt 0.796006 0.796006
vt 0.577905 0.607254
vt 0.796006 0.607254
vt 0.257732 0.483104
vt 0.257732 0.345253
vt 0.405735 0.345253
vt 0.257732 0.679033
vt 0.257732 0.560713
vt 0.377376 0.560713
vt 0.849744 0.345253
vt 0.849744 0.483103
vt 0.483640 0.679033
vt 0.849744 0.679033
vt 0.849744 0.560713
vt 0.867337 0.482638
vt 0.798622 0.552972
vt 0.798622 0.482638
vt 0.548584 0.573097
vt 0.608401 0.732095
vt 0.488767 0.732095
vt 0.914243 0.548336
vt 0.984497 0.420169
vt 0.984497 0.548337
vt 0.927870 0.682690
vt 0.996585 0.554500
vt 0.996585 0.682690
vt 0.108505 1.000000
vt 0.177220 0.871810
vt 0.177220 1.000000
vt 0.798622 0.482638
vt 0.718218 0.564936
vt 0.718218 0.482638
vt 0.808326 0.853245
vt 0.727923 0.992865
vt 0.727923 0.853245
vt 0.914243 0.280549
vt 0.914243 0.465603
vt 0.832038 0.385198
vt 0.839282 0.185054
vt 0.757077 0.080405
vt 0.839282 0.000000
vt 0.610891 0.732095
vt 0.691295 0.896692
vt 0.610891 0.896692
vt 0.088271 0.315383
vt 0.108213 0.426643
vt 0.088271 0.403755
vt 0.847556 0.554500
vt 0.927870 0.719097
vt 0.847556 0.719097
vt 0.220720 0.376896
vt 0.199059 0.265636
vt 0.220720 0.288524
vt 0.919686 0.000000
vt 0.839282 0.164597
vt 0.839282 0.000000
vt 0.221922 0.500153
vt 0.199059 0.399784
vt 0.221922 0.419748
vt 0.000000 0.732043
vt 0.080404 0.917130
vt 0.000000 0.917130
vt 0.488767 0.732095
vt 0.610891 0.866243
vt 0.488767 0.866243
vt 0.336826 0.200293
vt 0.230422 0.252396
vt 0.254621 0.200293
vt 0.569096 0.280549
vt 0.488767 0.000000
vt 0.569096 0.000000
vt 0.832038 0.280549
vt 0.751709 0.480602
vt 0.751709 0.280549
vt 0.930450 0.883694
vt 0.850047 0.988362
vt 0.850047 0.883694
vt 0.488767 0.052041
vt 0.361026 0.166184
vt 0.361026 0.052041
vt 0.465098 0.200347
vt 0.361026 0.252388
vt 0.384694 0.200347
vt 0.465098 0.000000
vt 0.384694 0.000000
vt 0.336826 0.000000
vt 0.230422 0.052103
vt 0.254621 0.000000
vt 0.230422 0.366518
vt 0.330851 0.400587
vt 0.260597 0.400587
vt 0.361025 0.052103
vt 0.230422 0.166225
vt 0.488767 0.252388
vt 0.361026 0.366531
vt 0.559021 0.866243
vt 0.488767 0.994410
vt 0.488767 0.866243
vt 0.488767 0.366531
vt 0.390539 0.400694
vt 0.488767 0.166184
vt 0.390539 0.200347
vt 0.260597 0.200293
vt 0.722470 0.275532
vt 0.802784 0.187161
vt 0.802784 0.275532
vt 0.330581 0.502677
vt 0.307719 0.400587
vt 0.330581 0.422272
vt 0.919686 0.139621
vt 1.000000 0.000000
vt 1.000000 0.139621
vt 0.352360 0.830889
vt 0.230422 0.953152
vt 0.230422 0.830889
vt 0.850047 0.719097
vt 0.930361 0.883694
vt 0.850047 0.883694
vt 0.230422 0.737662
vt 0.108505 0.871810
vt 0.108505 0.737662
vt 0.110788 0.546185
vt 0.110788 0.265636
vt 0.199059 0.465690
vt 0.914243 0.420169
vt 0.994647 0.280549
vt 0.994647 0.420169
vt 0.482964 0.741398
vt 0.361026 0.863661
vt 0.361026 0.741398
vt 0.850047 0.853245
vt 0.727923 0.719097
vt 0.850047 0.719097
vt 0.919686 0.279241
vt 1.000000 0.139621
vt 1.000000 0.279241
vt 0.646393 0.164618
vt 0.757077 0.000000
vt 0.757077 0.164618
vt 0.230422 0.737662
vt 0.119634 0.573044
vt 0.230422 0.573044
vt 0.640921 0.573097
vt 0.564844 0.573097
vt 0.564844 0.391358
vt 0.718218 0.564936
vt 0.640921 0.445167
vt 0.718218 0.445167
vt 0.000000 0.000000
vt 0.110788 0.292495
vt 0.000000 0.292495
vt 0.751709 0.280549
vt 0.640921 0.445167
vt 0.640921 0.280549
vt 0.488767 0.462287
vt 0.564844 0.280549
vt 0.564844 0.573097
vt 0.839282 0.275510
vt 0.915359 0.164597
vt 0.915359 0.275510
vt 0.361026 0.400694
vt 0.471814 0.582399
vt 0.361026 0.582400
vt 0.341106 0.666271
vt 0.230422 0.830889
vt 0.230422 0.666271
vt 0.088271 0.292495
vt 0.088271 0.573044
vt 0.000000 0.492549
vt 0.727923 0.573097
vt 0.847556 0.719097
vt 0.727923 0.719097
vt 0.110788 0.000000
vt 0.230422 0.265636
vt 0.110788 0.265636
vt 0.361026 0.983430
vt 0.438323 0.863661
vt 0.438323 0.983430
vt 0.307719 0.666271
vt 0.230422 0.520244
vt 0.307719 0.400587
vt 0.646393 0.265684
vt 0.569096 0.146027
vt 0.646393 0.000000
vt 0.722470 0.275532
vt 0.646393 0.164618
vt 0.722470 0.164618
vt 0.361026 0.741398
vt 0.480547 0.582400
vt 0.480547 0.741398
vt 0.119634 0.732043
vt 0.000000 0.573044
vt 0.119634 0.573044
vt 0.608401 0.573097
vt 0.727923 0.732095
vt 0.608401 0.732095
vt 0.867337 0.552972
vt 0.488767 0.573097
vt 0.608401 0.573097
vt 0.914243 0.420169
vt 0.927870 0.554500
vt 0.108505 0.871810
vt 0.798622 0.564936
vt 0.808326 0.992865
vt 0.832038 0.465603
vt 0.832038 0.280549
vt 0.757077 0.000000
vt 0.757077 0.185054
vt 0.691295 0.732095
vt 0.108213 0.292495
vt 0.927870 0.554500
vt 0.199059 0.399784
vt 0.919686 0.164597
vt 0.199059 0.521838
vt 0.080404 0.732043
vt 0.610891 0.732095
vt 0.488767 0.280549
vt 0.832038 0.480603
vt 0.930450 0.988362
vt 0.559021 0.994410
vt 0.459254 0.400694
vt 0.459254 0.200347
vt 0.330851 0.200293
vt 0.722470 0.187161
vt 0.307719 0.522642
vt 0.919686 0.000000
vt 0.352360 0.953152
vt 0.930361 0.719097
vt 0.230422 0.871810
vt 0.199059 0.265636
vt 0.199059 0.546185
vt 0.914243 0.280549
vt 0.482964 0.863661
vt 0.727923 0.853245
vt 0.919686 0.139621
vt 0.646393 0.000000
vt 0.119634 0.737662
vt 0.564844 0.280549
vt 0.640921 0.280549
vt 0.640921 0.564936
vt 0.110788 0.000000
vt 0.751709 0.445167
vt 0.488767 0.573097
vt 0.488767 0.280549
vt 0.839282 0.164597
vt 0.471813 0.400694
vt 0.341106 0.830889
vt 0.000000 0.573044
vt 0.000000 0.292495
vt 0.847556 0.573097
vt 0.230422 0.000000
vt 0.361026 0.863661
vt 0.230422 0.400587
vt 0.230422 0.666271
vt 0.569096 0.000000
vt 0.569096 0.265684
vt 0.646393 0.275532
vt 0.361026 0.582399
vt 0.000000 0.732043
vt 0.727923 0.573097
vn 0.0000 -1.0000 0.0000
vn 0.0000 1.0000 0.0000
vn 0.0000 -0.9651 0.2620
vn 0.0000 -0.9651 -0.2620
vn 0.2620 -0.9651 0.0000
vn -0.2620 -0.9651 0.0000
vn -1.0000 0.0000 0.0000
vn -0.0000 0.0000 1.0000
vn -0.0000 0.0000 -1.0000
vn 1.0000 0.0000 0.0000
vn 0.7998 0.6002 0.0000
vn -0.7998 0.6002 0.0000
vn 0.0000 0.6002 -0.7998
vn 0.0000 0.6002 0.7998
vn 0.0000 -0.7530 0.6580
vn 0.0000 -0.7530 -0.6580
vn 0.6228 -0.7824 0.0000
vn 0.0000 -0.9070 -0.4211
vn 0.9034 0.0000 -0.4288
vn -0.9034 0.0000 -0.4288
vn 0.0000 0.9070 -0.4211
vn 0.0000 -0.7686 0.6397
vn 0.7616 0.0000 0.6480
vn -0.7616 0.0000 0.6480
vn 0.0000 0.7686 0.6397
vn -0.6228 -0.7824 0.0000
usemtl Material
s off
f 99/1/1 110/2/1 113/3/1
f 27/4/2 21/5/2 26/6/2
f 30/7/2 6/8/2 27/4/2
f 71/9/3 77/10/3 74/11/3
f 72/12/4 80/13/4 28/14/4
f 4/15/2 29/16/2 26/6/2
f 28/17/5 79/18/5 71/19/5
f 77/20/6 72/21/6 74/22/6
f 30/7/2 14/23/2 13/24/2
f 40/25/7 11/26/7 12/27/7
f 113/3/1 5/28/1 1/29/1
f 7/30/1 114/31/1 112/32/1
f 11/33/8 24/34/8 12/35/8
f 20/36/1 110/2/1 19/37/1
f 130/38/9 135/39/9 136/40/9
f 41/41/7 16/42/7 39/43/7
f 39/43/7 135/44/7 134/45/7
f 14/46/7 41/41/7 13/47/7
f 10/48/1 96/49/1 9/50/1
f 28/51/10 27/52/10 26/53/10
f 77/54/7 84/55/7 78/56/7
f 30/57/7 72/58/7 29/59/7
f 29/60/9 28/61/9 26/62/9
f 78/63/9 87/64/9 80/65/9
f 87/66/11 127/67/11 86/68/11
f 71/69/8 30/70/8 27/71/8
f 80/72/10 86/73/10 79/74/10
f 79/75/8 83/76/8 77/77/8
f 9/50/1 112/32/1 31/78/1
f 32/79/1 97/80/1 10/48/1
f 98/81/1 113/3/1 112/32/1
f 31/78/1 113/3/1 32/79/1
f 98/81/1 114/31/1 33/82/1
f 20/36/1 114/31/1 111/83/1
f 127/84/2 126/85/2 125/86/2
f 83/87/12 126/88/12 84/89/12
f 84/90/13 128/91/13 87/92/13
f 83/76/14 127/93/14 125/94/14
f 131/95/8 5/96/8 129/97/8
f 132/98/7 96/99/7 131/100/7
f 137/101/8 140/102/8 138/103/8
f 135/104/7 138/105/7 140/106/7
f 129/107/2 138/108/2 131/109/2
f 140/110/1 133/111/1 134/112/1
f 37/113/10 21/114/10 22/115/10
f 111/116/10 34/117/10 137/118/10
f 99/1/1 19/37/1 110/2/1
f 27/4/2 22/119/2 21/5/2
f 22/119/2 27/4/2 6/8/2
f 30/7/2 13/24/2 2/120/2
f 2/120/2 6/8/2 30/7/2
f 71/9/3 79/121/3 77/10/3
f 72/12/4 78/122/4 80/13/4
f 21/5/2 8/123/2 26/6/2
f 4/15/2 14/23/2 29/16/2
f 26/6/2 8/123/2 4/15/2
f 28/17/5 80/13/5 79/18/5
f 77/20/6 78/124/6 72/21/6
f 30/7/2 29/16/2 14/23/2
f 40/25/7 38/125/7 11/26/7
f 1/29/1 97/80/1 113/3/1
f 113/3/1 110/2/1 5/28/1
f 96/49/1 3/126/1 112/32/1
f 7/30/1 111/83/1 114/31/1
f 112/32/1 3/126/1 7/30/1
f 11/33/8 134/127/8 133/128/8
f 24/34/8 23/129/8 12/35/8
f 11/33/8 133/128/8 24/34/8
f 2/130/8 12/35/8 23/129/8
f 23/129/8 6/131/8 2/130/8
f 20/36/1 111/83/1 110/2/1
f 15/132/9 4/133/9 17/134/9
f 17/134/9 18/135/9 15/132/9
f 4/133/9 8/136/9 17/134/9
f 132/137/9 135/39/9 130/38/9
f 16/138/9 15/132/9 18/135/9
f 16/138/9 18/135/9 136/40/9
f 3/139/9 132/137/9 130/38/9
f 130/38/9 7/140/9 3/139/9
f 16/138/9 136/40/9 135/39/9
f 41/41/7 15/141/7 16/42/7
f 134/45/7 11/26/7 38/125/7
f 39/43/7 16/42/7 135/44/7
f 134/45/7 38/125/7 39/43/7
f 14/46/7 4/142/7 15/141/7
f 15/141/7 41/41/7 14/46/7
f 40/25/7 12/27/7 13/47/7
f 13/47/7 41/41/7 40/25/7
f 12/27/7 2/143/7 13/47/7
f 10/48/1 97/80/1 96/49/1
f 28/51/10 71/144/10 27/52/10
f 77/54/7 83/145/7 84/55/7
f 30/57/7 74/146/7 72/58/7
f 29/60/9 72/147/9 28/61/9
f 78/63/9 84/148/9 87/64/9
f 87/66/11 128/149/11 127/67/11
f 71/69/8 74/150/8 30/70/8
f 80/72/10 87/151/10 86/73/10
f 79/75/8 86/152/8 83/76/8
f 9/50/1 96/49/1 112/32/1
f 32/79/1 113/3/1 97/80/1
f 98/81/1 99/1/1 113/3/1
f 31/78/1 112/32/1 113/3/1
f 98/81/1 112/32/1 114/31/1
f 20/36/1 33/82/1 114/31/1
f 127/84/2 128/153/2 126/85/2
f 83/87/12 125/154/12 126/88/12
f 84/90/13 126/155/13 128/91/13
f 83/76/14 86/152/14 127/93/14
f 131/95/8 1/156/8 5/96/8
f 1/157/7 131/100/7 97/158/7
f 132/98/7 3/159/7 96/99/7
f 96/99/7 97/158/7 131/100/7
f 137/101/8 139/160/8 140/102/8
f 135/104/7 132/161/7 138/105/7
f 129/107/2 137/162/2 138/108/2
f 140/110/1 139/163/1 133/111/1
f 22/115/10 6/164/10 23/165/10
f 23/165/10 24/166/10 22/115/10
f 24/166/10 35/167/10 22/115/10
f 21/114/10 37/113/10 36/168/10
f 17/169/10 8/170/10 21/114/10
f 34/171/10 18/172/10 21/114/10
f 35/167/10 37/113/10 22/115/10
f 36/168/10 34/171/10 21/114/10
f 17/169/10 21/114/10 18/172/10
f 137/118/10 129/173/10 5/174/10
f 137/118/10 5/174/10 110/175/10
f 24/176/10 133/177/10 139/178/10
f 139/178/10 137/118/10 34/117/10
f 111/116/10 7/179/10 130/180/10
f 137/118/10 110/175/10 111/116/10
f 35/181/10 24/176/10 139/178/10
f 18/182/10 34/117/10 136/183/10
f 111/116/10 130/180/10 34/117/10
f 136/183/10 34/117/10 130/180/10
f 35/181/10 139/178/10 34/117/10
usemtl Material.001
f 25/184/8 85/185/8 89/186/8
f 33/187/9 116/188/9 117/189/9
f 68/190/2 85/191/2 67/192/2
f 69/193/7 89/194/7 68/195/7
f 67/196/10 81/197/10 66/198/10
f 47/199/9 42/200/9 48/201/9
f 40/202/8 82/203/8 38/204/8
f 55/205/2 44/206/2 51/207/2
f 54/208/1 53/209/1 42/210/1
f 53/211/8 37/212/8 35/213/8
f 43/214/15 90/215/15 45/216/15
f 51/217/2 36/218/2 37/219/2
f 50/220/16 46/221/16 52/222/16
f 36/223/9 48/224/9 34/225/9
f 52/226/17 49/227/17 43/228/17
f 55/229/10 42/230/10 44/231/10
f 49/232/8 95/233/8 90/234/8
f 54/235/18 61/236/18 57/237/18
f 45/238/7 70/239/7 75/240/7
f 88/241/10 43/242/10 73/243/10
f 53/244/7 56/245/7 51/246/7
f 61/247/7 64/248/7 60/249/7
f 55/250/19 58/251/19 54/252/19
f 57/253/20 60/249/20 56/254/20
f 56/255/21 59/256/21 55/257/21
f 65/258/22 66/259/22 69/260/22
f 60/261/2 63/262/2 59/256/2
f 58/251/1 65/258/1 61/236/1
f 59/263/10 62/264/10 58/251/10
f 66/265/1 25/266/1 69/267/1
f 63/268/23 66/269/23 62/264/23
f 65/270/24 68/271/24 64/248/24
f 64/248/25 67/272/25 63/262/25
f 82/273/1 70/274/1 76/275/1
f 45/276/26 91/277/26 50/278/26
f 38/279/1 76/280/1 39/281/1
f 90/282/7 94/283/7 91/284/7
f 48/285/1 35/286/1 34/287/1
f 93/288/2 95/289/2 92/290/2
f 70/291/9 50/292/9 88/293/9
f 39/294/9 88/295/9 41/296/9
f 46/297/10 92/298/10 49/299/10
f 91/300/9 93/301/9 46/302/9
f 41/303/2 73/304/2 40/305/2
f 32/306/10 102/307/10 31/308/10
f 101/309/8 32/310/8 10/311/8
f 108/312/7 106/313/7 101/314/7
f 116/315/9 120/316/9 117/317/9
f 104/318/1 109/319/1 108/320/1
f 31/321/9 100/322/9 9/323/9
f 103/324/10 109/325/10 105/326/10
f 108/327/8 107/328/8 106/329/8
f 106/330/2 103/331/2 101/332/2
f 9/333/7 101/334/7 10/335/7
f 45/336/8 75/337/8 73/338/8
f 121/339/2 115/340/2 118/341/2
f 120/342/1 124/343/1 123/344/1
f 123/345/8 122/346/8 121/347/8
f 123/348/7 118/349/7 120/350/7
f 119/351/10 115/352/10 124/353/10
f 102/354/9 104/355/9 100/356/9
f 98/357/7 118/358/7 99/359/7
f 118/360/8 19/361/8 99/362/8
f 115/363/10 20/364/10 19/365/10
f 25/184/8 81/366/8 85/185/8
f 117/189/9 98/367/9 33/187/9
f 33/187/9 20/368/9 116/188/9
f 68/190/2 89/369/2 85/191/2
f 69/193/7 25/370/7 89/194/7
f 67/196/10 85/371/10 81/197/10
f 47/199/9 44/372/9 42/200/9
f 40/202/8 73/373/8 82/203/8
f 47/374/2 51/207/2 44/206/2
f 56/375/2 55/205/2 51/207/2
f 48/376/1 42/210/1 53/209/1
f 54/208/1 57/377/1 53/209/1
f 53/211/8 51/378/8 37/212/8
f 43/214/15 49/379/15 90/215/15
f 51/217/2 47/380/2 36/218/2
f 50/220/16 91/381/16 46/221/16
f 36/223/9 47/382/9 48/224/9
f 52/226/17 46/383/17 49/227/17
f 55/229/10 54/384/10 42/230/10
f 49/232/8 92/385/8 95/233/8
f 54/235/18 58/251/18 61/236/18
f 45/238/7 50/386/7 70/239/7
f 88/241/10 52/387/10 43/242/10
f 53/244/7 57/388/7 56/245/7
f 61/247/7 65/270/7 64/248/7
f 55/250/19 59/263/19 58/251/19
f 57/253/20 61/247/20 60/249/20
f 56/255/21 60/261/21 59/256/21
f 65/258/22 62/264/22 66/259/22
f 60/261/2 64/248/2 63/262/2
f 58/251/1 62/264/1 65/258/1
f 59/263/10 63/268/10 62/264/10
f 66/265/1 81/389/1 25/266/1
f 63/268/23 67/390/23 66/269/23
f 65/270/24 69/391/24 68/271/24
f 64/248/25 68/392/25 67/272/25
f 82/273/1 75/393/1 70/274/1
f 45/276/26 90/394/26 91/277/26
f 38/279/1 82/395/1 76/280/1
f 90/282/7 95/396/7 94/283/7
f 48/285/1 53/397/1 35/286/1
f 93/288/2 94/398/2 95/289/2
f 52/399/9 88/293/9 50/292/9
f 76/400/9 70/291/9 88/293/9
f 39/294/9 76/401/9 88/295/9
f 46/297/10 93/402/10 92/298/10
f 91/300/9 94/403/9 93/301/9
f 41/303/2 88/404/2 73/304/2
f 32/306/10 103/405/10 102/307/10
f 101/309/8 103/406/8 32/310/8
f 101/314/7 100/407/7 104/408/7
f 104/408/7 108/312/7 101/314/7
f 116/315/9 119/409/9 120/316/9
f 104/318/1 105/410/1 109/319/1
f 31/321/9 102/411/9 100/322/9
f 105/326/10 102/412/10 103/324/10
f 103/324/10 107/413/10 109/325/10
f 108/327/8 109/414/8 107/328/8
f 106/330/2 107/415/2 103/331/2
f 9/333/7 100/416/7 101/334/7
f 82/417/8 73/338/8 75/337/8
f 43/418/8 45/336/8 73/338/8
f 121/339/2 122/419/2 115/340/2
f 120/342/1 119/420/1 124/343/1
f 123/345/8 124/421/8 122/346/8
f 117/422/7 120/350/7 118/349/7
f 123/348/7 121/423/7 118/349/7
f 122/424/10 124/353/10 115/352/10
f 119/351/10 116/425/10 115/352/10
f 102/354/9 105/426/9 104/355/9
f 98/357/7 117/427/7 118/358/7
f 118/360/8 115/428/8 19/361/8
f 115/363/10 116/429/10 20/364/10
